<svg xmlns="http://www.w3.org/2000/svg" xmlns:xlink="http://www.w3.org/1999/xlink" width="512" zoomAndPan="magnify" viewBox="0 0 384 383.999986" height="512" preserveAspectRatio="xMidYMid meet" version="1.0"><defs><clipPath id="cc47e7dcca"><path d="M 192 0 C 85.960938 0 0 85.960938 0 192 C 0 298.039062 85.960938 384 192 384 C 298.039062 384 384 298.039062 384 192 C 384 85.960938 298.039062 0 192 0 Z M 192 0 " clip-rule="nonzero"/></clipPath><clipPath id="8423470c07"><path d="M 76.800781 78.699219 L 307.050781 78.699219 L 307.050781 305.199219 L 76.800781 305.199219 Z M 76.800781 78.699219 " clip-rule="nonzero"/></clipPath></defs><g clip-path="url(#cc47e7dcca)"><rect x="-38.4" width="460.8" fill="#ffffff" y="-38.399999" height="460.799983" fill-opacity="1"/></g><g clip-path="url(#8423470c07)"><path fill="#000000" d="M 121.652344 107.097656 C 111.265625 112.414062 96.070312 121.535156 86.953125 127.867188 L 92.777344 141.296875 C 102.152344 134.453125 117.34375 125.839844 127.730469 120.773438 Z M 127.730469 164.597656 C 127.730469 157.25 127.984375 148.386719 128.488281 141.039062 L 107.46875 141.039062 C 108.484375 148.386719 108.988281 157.503906 108.988281 164.597656 L 108.988281 252.246094 C 108.988281 260.351562 108.226562 267.953125 107.46875 275.296875 L 128.488281 275.296875 C 127.984375 268.707031 127.730469 260.351562 127.730469 251.988281 Z M 172.304688 283.152344 C 172.304688 291.003906 171.796875 298.351562 171.292969 305.1875 L 192.058594 305.1875 C 191.554688 298.351562 191.554688 291.003906 191.554688 283.152344 L 191.554688 207.40625 C 215.355469 208.167969 236.632812 210.953125 254.363281 222.101562 C 270.320312 231.980469 285.007812 250.21875 293.109375 269.976562 L 307.039062 251.234375 C 295.898438 229.699219 277.660156 210.449219 260.691406 201.332031 C 241.949219 191.199219 218.902344 187.144531 191.554688 186.382812 L 191.554688 117.480469 C 191.554688 111.402344 191.804688 103.296875 192.058594 97.722656 L 171.292969 97.722656 C 172.046875 103.800781 172.304688 112.164062 172.304688 117.480469 Z M 82.394531 113.429688 C 92.019531 106.082031 106.203125 97.976562 117.34375 92.402344 L 111.265625 78.722656 C 101.894531 83.535156 85.941406 93.417969 76.824219 100 Z M 82.394531 113.429688 " fill-opacity="1" fill-rule="nonzero"/></g></svg>