<svg xmlns="http://www.w3.org/2000/svg" xmlns:xlink="http://www.w3.org/1999/xlink" width="512" zoomAndPan="magnify" viewBox="0 0 384 383.999986" height="512" preserveAspectRatio="xMidYMid meet" version="1.0"><defs><g/></defs><g fill="#fff" fill-opacity="1"><g transform="translate(278.627512, 291.998033)"><g><path d="M 11.40625 -53.796875 C 8.738281 -52.460938 5.800781 -50.660156 2.59375 -48.390625 C -0.601562 -46.128906 -3.664062 -43.734375 -6.59375 -41.203125 C -9.53125 -38.671875 -12 -36.269531 -14 -34 C -18.53125 -45.726562 -23.695312 -55.257812 -29.5 -62.59375 C -35.300781 -69.925781 -42.066406 -75.523438 -49.796875 -79.390625 C -57.535156 -83.265625 -66.535156 -85.664062 -76.796875 -86.59375 C -76.660156 -76.59375 -76.492188 -67.023438 -76.296875 -57.890625 C -76.097656 -48.765625 -75.929688 -40.867188 -75.796875 -34.203125 C -75.660156 -27.535156 -75.460938 -22.800781 -75.203125 -20 L -104.203125 -18.40625 C -104.066406 -20.40625 -103.960938 -24.535156 -103.890625 -30.796875 C -103.828125 -37.066406 -103.828125 -44.632812 -103.890625 -53.5 C -103.960938 -62.363281 -104.03125 -71.925781 -104.09375 -82.1875 C -104.164062 -92.457031 -104.300781 -102.726562 -104.5 -113 C -104.695312 -123.269531 -104.863281 -132.90625 -105 -141.90625 C -105.132812 -150.90625 -105.332031 -158.535156 -105.59375 -164.796875 C -105.863281 -171.066406 -106.066406 -175.269531 -106.203125 -177.40625 L -77.203125 -177.796875 C -77.335938 -175.398438 -77.40625 -171.429688 -77.40625 -165.890625 C -77.40625 -160.359375 -77.40625 -153.757812 -77.40625 -146.09375 C -77.40625 -138.425781 -77.335938 -130.195312 -77.203125 -121.40625 C -77.203125 -120.738281 -77.203125 -120.101562 -77.203125 -119.5 C -77.203125 -118.894531 -77.203125 -118.257812 -77.203125 -117.59375 C -55.597656 -116 -37.757812 -109.96875 -23.6875 -99.5 C -9.625 -89.03125 2.070312 -73.796875 11.40625 -53.796875 Z M -124 -47.40625 L -153 -45.59375 C -152.863281 -47.726562 -152.828125 -51.363281 -152.890625 -56.5 C -152.960938 -61.632812 -153.03125 -67.664062 -153.09375 -74.59375 C -153.164062 -81.53125 -153.300781 -88.734375 -153.5 -96.203125 C -153.695312 -103.671875 -153.863281 -110.835938 -154 -117.703125 C -154.132812 -124.566406 -154.300781 -130.53125 -154.5 -135.59375 C -154.695312 -140.664062 -154.863281 -144.203125 -155 -146.203125 L -126 -146.796875 C -126.132812 -144.535156 -126.203125 -140.835938 -126.203125 -135.703125 C -126.203125 -130.566406 -126.164062 -124.695312 -126.09375 -118.09375 C -126.03125 -111.5 -125.929688 -104.597656 -125.796875 -97.390625 C -125.660156 -90.191406 -125.492188 -83.226562 -125.296875 -76.5 C -125.097656 -69.769531 -124.898438 -63.835938 -124.703125 -58.703125 C -124.503906 -53.566406 -124.269531 -49.800781 -124 -47.40625 Z M -133 -188.203125 C -137.269531 -185.929688 -141.738281 -182.992188 -146.40625 -179.390625 C -151.070312 -175.796875 -154.867188 -172.46875 -157.796875 -169.40625 L -167.59375 -182.796875 C -166 -184.535156 -163.664062 -186.671875 -160.59375 -189.203125 C -157.53125 -191.734375 -154.398438 -194.195312 -151.203125 -196.59375 C -148.003906 -199 -145.269531 -200.867188 -143 -202.203125 Z M -118.59375 -168.40625 C -122.863281 -166.132812 -127.296875 -163.195312 -131.890625 -159.59375 C -136.492188 -156 -140.265625 -152.664062 -143.203125 -149.59375 L -153 -163 C -151.394531 -164.726562 -149.0625 -166.859375 -146 -169.390625 C -142.9375 -171.929688 -139.835938 -174.398438 -136.703125 -176.796875 C -133.566406 -179.203125 -130.863281 -181.070312 -128.59375 -182.40625 Z M -118.59375 -168.40625 "/></g></g></g></svg>