<svg xmlns="http://www.w3.org/2000/svg" xmlns:xlink="http://www.w3.org/1999/xlink" width="512" zoomAndPan="magnify" viewBox="0 0 384 383.999986" height="512" preserveAspectRatio="xMidYMid meet" version="1.0"><defs><g/></defs><g fill="#000000" fill-opacity="1"><g transform="translate(271.13275, 284.613404)"><g><path d="M -134.996094 -173.394531 C -143.195312 -169.195312 -155.195312 -161.996094 -162.394531 -156.996094 L -157.796875 -146.394531 C -150.394531 -151.796875 -138.398438 -158.597656 -130.195312 -162.597656 Z M -130.195312 -127.996094 C -130.195312 -133.796875 -129.996094 -140.796875 -129.597656 -146.597656 L -146.195312 -146.597656 C -145.394531 -140.796875 -144.996094 -133.597656 -144.996094 -127.996094 L -144.996094 -58.796875 C -144.996094 -52.398438 -145.597656 -46.398438 -146.195312 -40.597656 L -129.597656 -40.597656 C -129.996094 -45.800781 -130.195312 -52.398438 -130.195312 -59 Z M -94.996094 -34.398438 C -94.996094 -28.199219 -95.398438 -22.398438 -95.796875 -17 L -79.398438 -17 C -79.796875 -22.398438 -79.796875 -28.199219 -79.796875 -34.398438 L -79.796875 -94.199219 C -61 -93.597656 -44.199219 -91.398438 -30.199219 -82.597656 C -17.597656 -74.796875 -6 -60.398438 0.398438 -44.800781 L 11.398438 -59.597656 C 2.601562 -76.597656 -11.800781 -91.796875 -25.199219 -98.996094 C -40 -106.996094 -58.199219 -110.195312 -79.796875 -110.796875 L -79.796875 -165.195312 C -79.796875 -169.996094 -79.597656 -176.394531 -79.398438 -180.796875 L -95.796875 -180.796875 C -95.199219 -175.996094 -94.996094 -169.394531 -94.996094 -165.195312 Z M -165.996094 -168.394531 C -158.394531 -174.195312 -147.195312 -180.59375 -138.398438 -184.996094 L -143.195312 -195.796875 C -150.597656 -191.996094 -163.195312 -184.195312 -170.394531 -178.996094 Z M -165.996094 -168.394531 "/></g></g></g></svg>