<svg xmlns="http://www.w3.org/2000/svg" xmlns:xlink="http://www.w3.org/1999/xlink" width="512" zoomAndPan="magnify" viewBox="0 0 384 383.999986" height="512" preserveAspectRatio="xMidYMid meet" version="1.0"><defs><g/></defs><g fill="#ffffff" fill-opacity="1"><g transform="translate(127.502155, 228.001154)"><g><path d="M -0.359375 -29.53125 C -0.359375 -23.0625 -1.4375 -18.738281 -3.59375 -16.5625 C -5.75 -14.382812 -10.082031 -13.296875 -16.59375 -13.296875 L -52.953125 -13.296875 L -52.953125 -14.0625 L -29.953125 -14.0625 C -32.390625 -29.488281 -36.398438 -44.816406 -41.984375 -60.046875 L -41.34375 -60.265625 C -35.8125 -45.078125 -31.78125 -29.675781 -29.25 -14.0625 L -16.59375 -14.0625 C -10.269531 -14.0625 -6.097656 -15.054688 -4.078125 -17.046875 C -2.066406 -19.046875 -1.0625 -23.207031 -1.0625 -29.53125 C -1.0625 -39.613281 -1.4375 -50.019531 -2.1875 -60.75 L -1.40625 -60.890625 C -0.707031 -51.140625 -0.359375 -40.6875 -0.359375 -29.53125 Z M -0.359375 -29.53125 "/></g></g></g><g fill="#ffffff" fill-opacity="1"><g transform="translate(217.502148, 228.001154)"><g><path d="M -58.578125 -54.28125 L -59 -54.84375 C -55.757812 -57.050781 -52.335938 -59.160156 -48.734375 -61.171875 L -48.375 -60.46875 C -51.65625 -58.644531 -55.054688 -56.582031 -58.578125 -54.28125 Z M -59.984375 -63 L -60.40625 -63.5625 C -56.65625 -66 -53.160156 -68.132812 -49.921875 -69.96875 L -49.5 -69.328125 C -52.832031 -67.503906 -56.328125 -65.394531 -59.984375 -63 Z M -49.296875 -14.0625 L -50.0625 -14.0625 L -50.0625 -52.953125 L -49.296875 -52.953125 Z M -30.59375 -64.484375 L -29.890625 -64.484375 L -29.890625 -38.53125 C -20.554688 -38.488281 -13.453125 -36.8125 -8.578125 -33.5 C -3.703125 -30.195312 -0.0195312 -24.703125 2.46875 -17.015625 L 1.625 -16.734375 C -0.820312 -24.328125 -4.363281 -29.71875 -9 -32.90625 C -13.644531 -36.09375 -20.609375 -37.710938 -29.890625 -37.765625 L -29.890625 -6.125 L -30.59375 -6.125 Z M -30.59375 -64.484375 "/></g></g></g><g fill="#ffffff" fill-opacity="1"><g transform="translate(307.50214, 212.602718)"><g><path d="M -26.71875 -8.296875 L -26.71875 -7.671875 L -0.359375 -7.671875 L -0.359375 -6.890625 L -52.25 -6.890625 L -52.25 -7.671875 L -27.984375 -7.671875 L -27.984375 -8.296875 L -52.25 -35.515625 L -52.25 -36.640625 L -27.359375 -8.578125 L -0.359375 -37.34375 L -0.359375 -36.28125 Z M -26.71875 -8.296875 "/></g></g></g></svg>